<svg width="321" height="321" xmlns="http://www.w3.org/2000/svg" xmlns:xlink="http://www.w3.org/1999/xlink" xml:space="preserve" overflow="hidden"><g transform="translate(-217 -155)"><path d="M257.125 258.656 237.062 258.656 237.062 211.844 283.875 211.844 283.875 231.906 257.125 231.906 257.125 258.656Z" fill="#2563EB"/><path d="M517.938 258.656 497.875 258.656 497.875 231.906 471.125 231.906 471.125 211.844 517.938 211.844 517.938 258.656Z" fill="#2563EB"/><path d="M283.875 419.156 237.062 419.156 237.062 372.344 257.125 372.344 257.125 399.094 283.875 399.094 283.875 419.156Z" fill="#2563EB"/><path d="M517.938 419.156 471.125 419.156 471.125 399.094 497.875 399.094 497.875 372.344 517.938 372.344 517.938 419.156Z" fill="#2563EB"/><path d="M452.674 288.75C433.765 272.309 407.059 255.312 377.41 255.312 347.761 255.312 321.017 272.309 302.135 288.75L237.062 288.75 237.062 302.125 517.938 302.125 517.938 288.75ZM347.68 288.75C362.258 272.338 387.38 270.85 403.793 285.428 404.965 286.469 406.075 287.578 407.116 288.75Z" fill="#2563EB"/><path d="M351.542 315.5C351.542 329.212 362.658 340.327 376.37 340.327 390.082 340.327 401.197 329.212 401.197 315.5 401.183 314.381 401.093 313.264 400.93 312.156L351.81 312.156C351.646 313.264 351.557 314.381 351.542 315.5Z" fill="#2563EB"/><path d="M454.102 312.156C456.232 314.313 458.181 316.373 459.877 318.269 446.08 332 430.024 343.256 412.412 351.546 412.394 351.55 412.376 351.538 412.372 351.52 412.37 351.51 412.372 351.5 412.379 351.492 422.918 341.228 428.378 326.828 427.292 312.156L417.354 312.156C417.454 313.26 417.511 314.377 417.511 315.5 417.511 337.66 399.547 355.625 377.386 355.625 355.226 355.625 337.261 337.66 337.261 315.5 337.261 314.377 337.322 313.26 337.422 312.156L327.457 312.156C326.368 326.835 331.843 341.242 342.407 351.492 342.419 351.507 342.416 351.528 342.402 351.539 342.394 351.545 342.384 351.548 342.374 351.546 324.727 343.317 308.661 332.054 294.909 318.269 296.792 316.169 298.808 314.162 300.794 312.156L279.224 312.156C276.166 316.523 276.643 322.446 280.361 326.267 295.147 341.832 333.028 375.688 377.41 375.688 421.791 375.688 459.639 341.832 474.663 326.267 478.218 322.349 478.59 316.492 475.559 312.156Z" fill="#2563EB"/></g></svg>