<svg width="720" height="720" xmlns="http://www.w3.org/2000/svg" xmlns:xlink="http://www.w3.org/1999/xlink" xml:space="preserve" overflow="hidden"><g transform="translate(253 29)"><path d="M-108.393 489.198C-128.89 489.198-147.52 472.458-147.52 452.05-147.52 431.642-130.78 414.79-108.393 414.79-85.8925 414.79-68.995 431.552-68.995 452.05-68.995 472.458-87.7375 489.198-108.257 489.198ZM371.96 286.36C367.843 256.592 349.46 232.337 325.182 213.82L315.71 206.327 308.083 215.575C293.323 232.337 287.36 262.105 289.205 284.358 290.982 301.255 296.338 317.995 305.855 331 298.115 334.983 288.755 338.492 281.465 342.362 264.365 347.965 247.715 349.855 231.087 349.855L-250.075 349.855-251.965 360.857C-255.475 396.385-250.075 433.51-235.068 467.148L-227.688 480.175-227.688 481.908C-182.688 556.45-102.655 589.975-15.355 589.975 152.473 589.975 290.037 517.435 355.287 360.992 398.06 362.86 441.215 351.723 461.465 310.705L466.865 301.458 457.955 295.81C433.587 280.938 400.287 278.958 372.432 286.45L371.825 286.562ZM131.728 256.592 58.85 256.592 58.85 329.223 131.728 329.223ZM131.728 165.31 58.85 165.31 58.85 237.94 131.728 237.94ZM131.728 72.1375 58.85 72.1375 58.85 144.79 131.728 144.79ZM220.782 256.592 148.355 256.592 148.355 329.223 221.007 329.223 221.007 256.592ZM-49.0825 256.592-121.51 256.592-121.51 329.223-48.8575 329.223-48.8575 256.592ZM41.7275 256.592-30.205 256.592-30.205 329.223 42.2225 329.223 42.2225 256.592ZM-139.082 256.592-211.06 256.592-211.06 329.223-138.16 329.223-138.16 256.592ZM41.7275 165.31-30.205 165.31-30.205 237.94 42.2225 237.94 42.2225 165.4ZM-49.5775 165.31-121.398 165.31-121.398 237.94-48.97 237.94-48.97 165.4-49.4425 165.31Z" fill="#2563EB"/></g></svg>