<svg width="320" height="321" xmlns="http://www.w3.org/2000/svg" xmlns:xlink="http://www.w3.org/1999/xlink" xml:space="preserve" overflow="hidden"><g transform="translate(-228 -421)"><path d="M241.667 210.333C236.333 205 228.333 202.333 221 204L206 189.333C219.333 172 226.667 150.667 226.667 128.667 227 73 182 28 126.667 27.6667 71.3333 27.3333 26.3333 72.3333 26 127.667 25.6667 183 70.6667 228 126 228.333 148 228.333 169.667 221 187.333 207.667L202 222.333C200.667 230 203 237.667 208.333 243.333L250 285C259 294 274 294 283 285 292 276 292 261 283 252L241.667 210.333ZM126.667 208.333C82.3333 208.333 46.6667 172.667 46.6667 128.333 46.6667 84 82.3333 48.3333 126.667 48.3333 171 48.3333 206.667 84 206.667 128.333 206.667 172.333 170.667 208.333 126.667 208.333Z" fill="#2563EB" transform="matrix(1 0 0 1.00313 228 421)"/><path d="M198.333 123.333 179.333 123.333C177.667 123.667 176 124.667 175 126L162.333 139.667 151.667 102.667C150.667 99.6667 147.333 97.6667 144.333 98.6667 142.667 99.3333 141 100.333 140.333 102.333L120.333 155.333 106.667 82C106 78.6667 103 76.6667 100 77.3333 98 77.6667 96.3333 79.3333 95.3333 81.3333L81 123.333 55 123.333 55 136.667 85.3333 136.667C88 136.333 90.3333 134.333 91 131.667L99.3333 106.333 112.667 178C113 180.667 115.333 182.667 118 182.667L118.667 182.667C121 182.667 123.333 181.333 124.333 179L145.667 123 154.333 153C155.333 156 158.333 158 161.667 157 162.667 156.667 163.667 156 164.333 155.333L182.333 136.667 198.667 136.667 198.667 123.333Z" fill="#2563EB" transform="matrix(1 0 0 1.00313 228 421)"/></g></svg>