<svg width="321" height="321" xmlns="http://www.w3.org/2000/svg" xmlns:xlink="http://www.w3.org/1999/xlink" xml:space="preserve" overflow="hidden"><g transform="translate(-592 -87)"><path d="M855.488 158.523 867.395 146.703C869.986 144.426 870.241 140.479 867.964 137.888 867.836 137.741 867.7 137.601 867.558 137.467L855.855 125.764C853.319 123.169 849.159 123.12 846.564 125.656 846.528 125.692 846.491 125.728 846.456 125.764L834.549 137.584Z" fill="#2563EB"/><path d="M812.694 289.297 812.694 279.266 787.616 279.266 787.616 316.047 782.6 316.047 782.6 326.078 847.804 326.078 847.804 209.047 819.579 209.047 809.548 219.078 837.772 219.078 837.772 249.172 785.938 249.172 785.938 259.203 837.772 259.203 837.772 279.266 829.413 279.266 829.413 289.297 837.772 289.297 837.772 316.047 797.647 316.047 797.647 289.297 812.694 289.297Z" fill="#2563EB"/><path d="M864.72 163.906 844.657 183.969 869.531 183.969 869.531 347.812 673.838 347.812C674.613 345.651 675.136 343.407 675.396 341.125L675.594 337.781 675.594 183.969 774.167 183.969 794.193 163.906 675.594 163.906 675.594 160.562C675.594 143.942 662.12 130.469 645.5 130.469 628.88 130.469 615.406 143.942 615.406 160.562L615.406 337.781 615.604 341.125C617.267 355.777 629.297 367.068 644.025 367.801L644.025 367.875 889.594 367.875 889.594 163.906ZM645.5 347.812C639.96 347.812 635.469 343.322 635.469 337.781 635.469 332.241 639.96 327.75 645.5 327.75 651.04 327.75 655.531 332.241 655.531 337.781 655.531 343.322 651.04 347.812 645.5 347.812ZM655.531 309.443C649.048 307.102 641.952 307.102 635.469 309.443L635.469 160.562C635.469 155.022 639.96 150.531 645.5 150.531 651.04 150.531 655.531 155.022 655.531 160.562Z" fill="#2563EB"/><path d="M739.128 219.078 749.14 209.047 697.328 209.047 697.328 326.078 762.538 326.078 762.538 316.047 757.522 316.047 757.522 279.266 732.444 279.266 732.444 289.297 747.491 289.297 747.491 316.047 707.359 316.047 707.359 289.297 715.725 289.297 715.725 279.266 707.359 279.266 707.359 259.203 725.787 259.203 729.114 249.172 707.359 249.172 707.359 219.078 739.128 219.078Z" fill="#2563EB"/><path d="M829.874 142.352 747.849 224.538 737.453 255.859 768.951 245.47 850.973 163.445ZM765.494 239.709 751.477 244.33 749.006 241.856 753.62 227.839C756.969 224.668 762.234 224.741 765.494 228.003 768.727 231.142 768.802 236.307 765.663 239.54 765.607 239.597 765.551 239.654 765.494 239.709Z" fill="#2563EB"/></g></svg>