<svg width="448" height="512" xmlns="http://www.w3.org/2000/svg" xmlns:xlink="http://www.w3.org/1999/xlink" xml:space="preserve" overflow="hidden"><defs><clipPath id="clip0"><rect x="416" y="104" width="448" height="512"/></clipPath></defs><g clip-path="url(#clip0)" transform="translate(-416 -104)"><path d="M664 210.6C682.9 201.6 696 182.3 696 160 696 129.1 670.9 104 640 104 609.1 104 584 129.1 584 160 584 182.3 597.1 201.6 616 210.6L616 309.4C613.2 310.7 610.5 312.3 608 314.1L527.9 268.3C529.5 247.5 519.3 226.7 500 215.5 473.2 200 439 209.2 423.5 236 408 262.8 417.2 297 444 312.5 445.3 313.3 446.6 314 448 314.6L448 405.4C446.7 406 445.3 406.7 444 407.5 417.2 423 408 457.2 423.5 484 439 510.8 473.2 520 500 504.5 519.3 493.4 529.4 472.5 527.8 451.7L578.3 422.8C566.8 411.6 558.4 397.2 554.5 381.1L504 410.1C501.4 408.3 498.8 406.8 496 405.4L496 314.6C498.8 313.3 501.5 311.7 504 309.9L584.1 355.7C584 357.1 583.9 358.5 583.9 360 583.9 382.3 597 401.6 615.9 410.6L615.9 509.4C597 518.4 583.9 537.7 583.9 560 583.9 590.9 609 616 639.9 616 670.8 616 695.9 590.9 695.9 560 695.9 537.7 682.8 518.4 663.9 509.4L663.9 410.6C666.7 409.3 669.4 407.7 671.9 405.9L752 451.7C750.4 472.5 760.6 493.3 779.8 504.5 806.6 520 840.8 510.8 856.3 484 871.8 457.2 862.6 423 835.8 407.5 834.5 406.7 833.1 406 831.8 405.4L831.8 314.6C833.2 314 834.5 313.3 835.8 312.5 862.6 297 871.8 262.8 856.3 236 840.8 209.2 806.8 200 780 215.5 760.7 226.6 750.6 247.5 752.2 268.3L701.6 297.2C713.1 308.4 721.5 322.8 725.4 338.9L776 309.9C778.6 311.7 781.2 313.2 784 314.6L784 405.4C781.2 406.7 778.5 408.3 776 410L695.9 364.2C696 362.8 696.1 361.4 696.1 359.9 696.1 337.6 683 318.3 664.1 309.3L664.1 210.5Z" fill="#2563EB"/></g></svg>